<svg width="12" height="18" viewBox="0 0 12 18" fill="none" xmlns="http://www.w3.org/2000/svg">
<path d="M0.790033 10.1295L9.01303 17.3235C9.98203 18.1725 11.5 17.4825 11.5 16.194V1.80597C11.5003 1.51761 11.4174 1.23528 11.2613 0.992807C11.1052 0.750331 10.8826 0.557984 10.62 0.438801C10.3574 0.319617 10.066 0.278648 9.78077 0.320801C9.4955 0.362954 9.22843 0.486441 9.01153 0.676474L0.791534 7.87047C0.63042 8.01127 0.50129 8.1849 0.412814 8.37971C0.324339 8.57452 0.278564 8.78601 0.278564 8.99997C0.278564 9.21394 0.324339 9.42542 0.412814 9.62024C0.50129 9.81505 0.63042 9.98868 0.791534 10.1295H0.790033Z" fill="#2196F3"/>
</svg>
