<svg width="12" height="18" viewBox="0 0 12 18" fill="none" xmlns="http://www.w3.org/2000/svg">
<path d="M11.21 10.1295L2.987 17.3235C2.018 18.1725 0.500001 17.4825 0.500001 16.194V1.80597C0.499753 1.51761 0.582632 1.23528 0.738711 0.992807C0.894791 0.750331 1.11746 0.557984 1.38004 0.438801C1.64262 0.319617 1.934 0.278648 2.21927 0.320801C2.50454 0.362954 2.77161 0.486441 2.9885 0.676474L11.2085 7.87047C11.3696 8.01127 11.4987 8.1849 11.5872 8.37971C11.6757 8.57452 11.7215 8.78601 11.7215 8.99997C11.7215 9.21394 11.6757 9.42542 11.5872 9.62024C11.4987 9.81505 11.3696 9.98868 11.2085 10.1295H11.21Z" fill="#2196F3"/>
</svg>
